:SAMPLES-PER-SECOND 30
:FULLY-SPECIFIED
:DEGREES
447
root  -2.50463 39.2903 -15.0106 -10.6456 79.1272 -5.48566
RightUpLeg  -3.00042 -9.46714 -3.72356
RightLeg  17.1443 6.57101 2.10175
RightFoot  -7.64539 -0.0631662 0.347723
RightToes  6.35927e-011 1.30204e-014 -6.03759e-014
Spine  8.98752 -1.01279 12.0852
Spine1  9.08746 1.09786 -2.34233
HEad  -18.8059 8.22668 -10.3881
LeftShoulder1  -0.703278 5.3488 -31.9628
LeftArm  -8.76251 18.5567 -39.968
LeftForeArm  26.3681 -7.99947 -6.09994
LeftHand  -0.0433215 8.71367 0.117438
RightShoulder  -0.843408 -5.87856 28.9119
RightArm  9.64178 -19.3245 29.9309
RightForeArm  -1.50854 11.3455 4.25291
RightHand  -0.117169 -0.530432 -2.75223
LeftUpLeg  -2.51559 3.70366 9.65974
LeftLeg  32.8032 0.965354 1.01373
LeftFoot  -7.56005 0.287453 -7.31096
LeftToes  -7.16024e-010 4.79583e-011 -5.98286e-011
448
root  -3.05889 39.2206 -15.4816 -11.8877 78.882 -6.79285
RightUpLeg  -4.49264 -9.02851 -3.70319
RightLeg  17.6926 6.38747 1.99073
RightFoot  -6.68351 -0.0806063 0.865832
RightToes  6.35927e-011 1.30204e-014 -6.03759e-014
Spine  8.98363 -1.06428 11.3495
Spine1  8.82942 0.853528 -1.86658
HEad  -18.8753 8.30351 -10.3246
LeftShoulder1  -0.65967 5.24307 -31.7732
LeftArm  -8.11779 17.3074 -39.9013
LeftForeArm  26.2157 -9.40179 -6.28247
LeftHand  -0.0375557 8.50972 0.31958
RightShoulder  -0.829728 -5.84066 28.8964
RightArm  8.2085 -16.951 31.5068
RightForeArm  -1.47867 10.6663 4.08972
RightHand  -0.128139 -0.339017 -2.9263
LeftUpLeg  1.17379 3.67794 11.0076
LeftLeg  29.619 -0.630601 -0.0330176
LeftFoot  -8.5901 0.267617 -9.21041
LeftToes  -7.16024e-010 4.79583e-011 -5.98286e-011
449
root  -3.62843 39.1532 -15.974 -13.3782 78.9886 -8.60815
RightUpLeg  -6.07166 -8.48884 -3.6632
RightLeg  17.8886 5.70093 1.72652
RightFoot  -5.40999 -0.1021 1.26445
RightToes  6.35927e-011 1.30204e-014 -6.03759e-014
Spine  8.83129 -1.04951 10.5423
Spine1  8.40419 0.601504 -1.48194
HEad  -18.85 7.94857 -10.1562
LeftShoulder1  -0.609098 5.1238 -31.4495
LeftArm  -6.69813 15.9391 -40.0332
LeftForeArm  25.2991 -11.6709 -6.2537
LeftHand  -0.0294239 8.15722 0.587135
RightShoulder  -0.815868 -5.80238 28.8788
RightArm  7.10094 -14.6964 33.385
RightForeArm  -1.64073 10.8723 3.98829
RightHand  -0.134694 0.422019 -2.75861
LeftUpLeg  4.55912 2.91406 11.9191
LeftLeg  24.7399 -3.91696 -1.63369
LeftFoot  -11.5927 0.0479823 -10.859
LeftToes  -7.16024e-010 4.79583e-011 -5.98286e-011
450
root  -4.22593 39.1382 -16.4952 -13.8202 79.3314 -9.47626
RightUpLeg  -7.44367 -8.06713 -3.96407
RightLeg  17.3737 5.07936 1.45542
RightFoot  -3.89907 -0.136007 1.68061
RightToes  6.35927e-011 1.30204e-014 -6.03759e-014
Spine  8.91275 -0.931535 9.38709
Spine1  7.64 0.407077 -1.40139
HEad  -19.0652 7.33221 -9.7373
LeftShoulder1  -0.591339 5.08346 -31.2853
LeftArm  -4.04577 14.431 -40.1926
LeftForeArm  22.8247 -15.009 -5.72288
LeftHand  -0.0186707 7.63276 1.11446
RightShoulder  -0.812385 -5.78518 28.9905
RightArm  6.68117 -12.3763 35.2626
RightForeArm  -1.88027 11.9794 4.05252
RightHand  -0.144846 1.48932 -2.58483
LeftUpLeg  7.07068 2.44985 11.8394
LeftLeg  18.8895 -7.03363 -2.31132
LeftFoot  -14.7014 -0.204791 -10.1081
LeftToes  -7.16024e-010 4.79583e-011 -5.98286e-011
